<?xml version="1.0" standalone="no"?>
<!DOCTYPE svg PUBLIC "-//W3C//DTD SVG 20010904//EN"
 "http://www.w3.org/TR/2001/REC-SVG-20010904/DTD/svg10.dtd">
<svg version="1.0" xmlns="http://www.w3.org/2000/svg"
 width="60.000000pt" height="45.000000pt" viewBox="0 0 227.000000 222.000000"
 preserveAspectRatio="xMidYMid meet">
<metadata>
Created by potrace 1.10, written by Peter Selinger 2001-2011
</metadata>
<g transform="translate(0.000000,222.000000) scale(0.100000,-0.100000)"
fill="#000000" stroke="none">
<path d="M1574 2185 c-24 -37 -13 -39 20 -5 20 22 23 30 12 30 -9 0 -23 -11
-32 -25z"/>
<path d="M1638 2123 c-3 -16 -9 -36 -13 -45 -4 -11 -3 -18 4 -18 6 0 11 9 11
19 0 11 4 22 9 25 15 10 20 46 6 46 -7 0 -15 -12 -17 -27z"/>
<path d="M1545 2088 c-33 -111 -32 -118 20 -179 46 -54 46 -54 40 -109 -7 -57
-14 -66 -55 -76 -68 -16 -160 -72 -160 -98 0 -20 74 -47 110 -40 32 7 58 36
83 94 12 27 16 30 16 14 1 -29 -19 -84 -31 -84 -6 0 -8 -6 -5 -13 3 -8 -3 -20
-14 -28 -11 -8 -17 -20 -14 -30 3 -9 -3 -32 -15 -50 -11 -19 -23 -41 -26 -49
-14 -36 -59 -125 -65 -130 -3 -3 -14 -29 -24 -59 -17 -51 -19 -53 -32 -35 -13
18 -14 17 -8 -7 4 -17 0 -39 -10 -59 -9 -17 -14 -37 -12 -43 2 -7 -3 -24 -11
-39 -12 -21 -21 -26 -38 -22 -12 3 -25 0 -30 -7 -5 -9 -2 -11 9 -6 12 4 14 2
10 -10 -4 -11 -2 -14 5 -9 17 11 3 -25 -21 -51 -11 -12 -16 -27 -12 -34 5 -8
4 -10 -3 -5 -7 4 -12 2 -12 -4 0 -6 -5 -8 -12 -4 -6 4 -8 3 -5 -3 4 -6 -3 -22
-14 -37 -14 -18 -16 -26 -7 -26 8 -1 5 -7 -8 -18 -11 -10 -19 -23 -16 -30 7
-21 -19 -44 -42 -37 -12 3 -29 8 -40 10 -10 2 -30 12 -43 20 -13 9 -34 18 -46
20 -11 3 -23 8 -26 12 -3 5 -23 21 -43 36 -57 42 -58 65 -7 139 23 35 48 68
54 73 7 6 22 27 34 48 13 20 27 35 32 31 5 -3 9 6 9 19 0 14 6 37 14 51 l13
26 27 -21 27 -21 -20 -34 c-11 -19 -16 -34 -11 -34 22 0 25 2 22 15 -3 16 25
28 34 14 3 -6 10 -4 18 6 10 14 14 14 30 2 19 -14 35 -64 16 -52 -5 3 -12 -5
-16 -19 -6 -23 -6 -24 -34 -8 -17 10 -26 22 -22 30 3 9 0 13 -7 11 -7 -3 -12
-9 -11 -14 1 -5 -7 -12 -17 -16 -16 -7 -16 -8 3 -8 24 -1 48 -24 36 -36 -4 -4
3 -5 16 -2 19 4 26 -1 24 -23 -1 -8 42 -5 56 4 9 5 7 12 -8 24 -18 15 -19 20
-8 50 15 39 19 39 55 6 15 -14 29 -21 31 -15 4 11 -27 42 -62 62 -15 9 -17 8
-11 -3 4 -7 -2 -3 -14 10 -12 12 -26 23 -31 23 -6 1 -13 2 -17 3 -19 3 -83 46
-83 56 0 13 60 121 77 138 7 7 13 18 13 24 0 17 41 68 51 63 5 -4 6 2 2 11 -4
12 -3 15 5 10 8 -5 12 2 12 20 0 14 12 53 27 86 l27 60 18 -24 19 -23 -7 38
c-4 26 -3 37 6 37 7 0 10 7 6 15 -3 8 -2 15 3 15 13 0 31 49 24 67 -4 10 -2
14 4 10 5 -3 10 0 10 8 0 28 -16 15 -36 -30 -11 -25 -24 -45 -30 -45 -6 0 -7
-7 -4 -17 4 -10 2 -14 -4 -10 -13 8 -38 -33 -78 -128 -50 -120 -166 -327 -180
-321 -12 4 -39 -43 -40 -71 0 -20 -60 -113 -72 -113 -15 0 -17 12 -5 25 16 18
170 358 207 455 50 133 65 185 74 265 5 41 21 99 39 142 18 39 32 82 31 95 0
16 -4 12 -13 -17 -7 -22 -27 -66 -45 -99 -25 -47 -31 -70 -31 -120 0 -35 -3
-66 -7 -70 -5 -4 -8 -11 -9 -14 -3 -21 -18 -42 -30 -42 -8 0 -15 -11 -15 -27
-1 -16 -2 -35 -3 -43 -3 -37 -31 -82 -60 -95 -26 -11 -28 -13 -9 -14 27 -1 41
-21 16 -22 -10 0 -13 -3 -5 -6 6 -2 12 -9 12 -14 0 -6 -5 -7 -11 -3 -6 3 -10
-1 -9 -12 4 -35 0 -44 -20 -44 -12 0 -20 -7 -20 -17 0 -15 2 -16 10 -3 25 39
6 -9 -27 -68 -21 -37 -35 -67 -33 -67 3 0 -3 -11 -13 -25 -9 -13 -17 -34 -17
-47 0 -12 -7 -28 -15 -37 -8 -8 -15 -19 -15 -25 0 -6 -8 -11 -17 -11 -26 0
-115 45 -106 54 4 4 0 4 -9 1 -9 -4 -19 -2 -22 4 -4 6 -13 8 -21 4 -8 -3 -15
-1 -15 4 0 6 -9 14 -20 19 -21 10 -22 6 17 79 6 11 19 38 29 60 11 22 22 42
25 45 15 12 59 108 65 140 6 36 -17 -2 -128 -218 -23 -45 -47 -81 -53 -78 -6
2 -22 -12 -35 -30 -18 -27 -21 -37 -11 -47 10 -9 11 -8 6 8 -6 18 -5 18 13 -2
18 -20 21 -21 27 -6 3 10 3 14 -1 10 -8 -8 -34 11 -34 25 0 5 8 4 19 -1 16 -9
18 -8 14 9 -3 11 -2 20 2 20 14 0 54 -38 47 -45 -4 -3 -2 -6 3 -4 15 3 95 -33
95 -43 0 -5 4 -7 9 -4 13 8 81 -22 81 -36 0 -6 3 -9 6 -5 4 3 13 -1 21 -9 9
-8 12 -18 9 -22 -4 -3 -10 -2 -14 4 -12 18 -50 35 -57 25 -3 -5 3 -12 13 -15
10 -4 18 -17 20 -33 1 -19 -1 -24 -7 -14 -5 8 -11 9 -15 3 -3 -6 -16 -7 -29
-4 -40 12 -126 64 -124 76 1 6 -4 10 -11 8 -18 -3 -11 30 7 36 8 3 11 0 8 -5
-4 -6 4 -9 18 -8 13 2 29 -3 36 -11 6 -8 16 -14 21 -14 18 0 -17 25 -69 51
-46 23 -51 23 -42 6 8 -14 7 -22 -6 -31 -15 -11 -14 -14 9 -31 26 -20 36 -55
14 -55 -6 0 -8 -3 -5 -7 4 -3 26 -7 49 -8 51 -2 108 -23 108 -38 0 -7 -13 -28
-30 -47 -24 -28 -27 -37 -17 -49 7 -8 8 -12 2 -9 -5 3 -19 -6 -30 -21 -19 -26
-19 -26 0 -11 13 9 16 9 8 1 -6 -7 -9 -21 -6 -30 4 -10 -1 -8 -14 7 -11 12
-27 22 -34 23 -8 0 -5 4 6 9 14 6 16 9 4 9 -20 1 -83 58 -69 63 6 2 -7 4 -30
4 -51 2 -48 -14 7 -35 28 -10 44 -22 48 -38 3 -13 10 -23 15 -23 6 0 10 -8 11
-17 0 -15 2 -15 9 2 7 17 9 17 9 3 1 -10 6 -18 11 -18 16 0 11 -26 -8 -43 -21
-19 -67 -24 -56 -6 3 6 -8 4 -24 -5 -44 -23 -99 -21 -112 3 -5 11 -10 28 -10
39 0 23 25 48 34 34 3 -6 -1 -15 -9 -22 -8 -7 -15 -18 -15 -24 0 -6 4 -5 9 3
11 17 32 5 24 -14 -3 -8 0 -15 6 -15 6 0 11 7 11 16 0 11 6 15 20 11 13 -3 18
-1 13 6 -4 6 2 8 16 4 19 -5 20 -3 10 10 -10 12 -10 16 2 24 11 7 8 9 -10 9
-20 0 -21 2 -11 15 9 11 9 15 1 15 -17 0 -25 -28 -12 -44 13 -15 5 -26 -21
-26 -12 0 -18 7 -18 21 0 11 4 17 10 14 5 -3 10 1 10 9 0 8 -4 18 -10 21 -5 3
-10 -1 -10 -9 0 -20 -14 -20 -30 -1 -12 15 -11 16 10 19 20 2 10 21 -12 21
-21 0 -28 -16 -30 -72 0 -19 -6 -15 -39 23 -44 51 -43 48 -29 75 13 23 33 25
50 4 7 -8 27 -15 44 -15 18 0 38 -6 46 -12 12 -11 12 -10 2 3 -7 9 -26 22 -42
29 -17 7 -30 14 -30 16 0 2 15 27 33 54 20 32 39 50 52 50 16 0 17 2 5 9 -8 6
-19 7 -25 5 -5 -3 1 4 14 15 13 12 20 21 16 21 -4 0 -2 6 4 14 9 10 9 16 1 21
-14 9 -8 16 -64 -87 -42 -78 -76 -116 -76 -85 0 7 42 98 94 202 97 197 113
239 96 250 -6 4 -8 10 -5 15 3 5 1 11 -4 14 -5 3 -9 -9 -8 -27 0 -19 -12 -53
-30 -82 -26 -44 -34 -50 -66 -53 -25 -2 -46 3 -65 17 l-29 20 0 -30 c0 -16 4
-29 9 -29 5 0 6 5 2 12 -5 7 -3 8 7 3 14 -9 33 -13 82 -16 17 -1 23 -5 16 -9
-6 -4 -9 -13 -5 -19 4 -6 -1 -23 -12 -38 -74 -111 -80 -123 -75 -142 6 -23
-12 -29 -21 -8 -3 6 -3 1 0 -12 5 -19 3 -23 -10 -18 -13 5 -15 3 -7 -10 6 -12
3 -27 -15 -52 -16 -24 -24 -50 -24 -79 0 -35 -3 -43 -15 -38 -8 3 -15 1 -15
-4 0 -6 -5 -10 -11 -10 -5 0 -8 4 -4 9 3 5 0 13 -6 17 -8 5 -9 3 -4 -6 5 -8 3
-11 -6 -8 -8 3 -13 11 -11 17 1 7 -2 10 -8 6 -5 -3 -10 -2 -10 2 0 9 -79 36
-110 38 -8 0 -14 7 -12 14 2 8 -3 11 -12 8 -12 -5 -13 0 -5 26 5 18 9 33 9 34
0 2 -11 3 -24 3 -32 0 -40 -14 -20 -34 14 -15 14 -18 -3 -34 -10 -9 -14 -14
-9 -9 17 12 38 8 33 -7 -3 -8 1 -20 9 -27 11 -9 18 -8 34 6 13 12 20 14 20 6
0 -14 -20 -35 -35 -38 -6 -1 -19 -5 -30 -9 -18 -7 -18 -6 -6 9 9 11 10 17 2
17 -6 0 -11 -4 -11 -10 0 -5 -8 -10 -17 -11 -15 0 -15 -2 2 -9 19 -9 19 -9 -2
-16 -13 -3 -23 -10 -23 -15 0 -13 8 -11 39 12 15 11 34 21 42 22 8 2 21 7 29
12 8 5 22 10 30 12 23 3 100 -39 93 -51 -3 -6 -3 -8 2 -4 4 4 24 -1 45 -12
l37 -19 13 40 c7 21 16 39 20 39 10 0 54 -59 63 -84 4 -10 2 -25 -5 -34 -11
-13 -10 -15 5 -9 10 4 17 2 17 -6 0 -13 88 -63 103 -59 4 1 10 -5 13 -13 3 -8
10 -12 15 -9 5 3 9 0 9 -5 0 -6 7 -11 16 -11 11 0 14 5 10 16 -7 17 55 143 92
189 14 17 31 29 38 27 9 -2 11 3 8 13 -9 22 -19 19 -34 -10 -7 -14 -15 -23
-17 -21 -3 2 4 21 14 41 l19 36 31 -30 c17 -16 29 -32 26 -34 -2 -3 0 -8 6
-12 6 -3 11 -1 11 5 0 7 5 7 13 -2 13 -11 19 -38 10 -38 -3 0 -14 5 -25 11
-15 8 -19 8 -13 0 4 -7 1 -19 -6 -27 -6 -8 -9 -18 -5 -22 4 -4 12 1 17 11 8
14 14 15 31 6 18 -10 20 -9 15 5 -9 23 9 29 36 11 14 -9 33 -17 43 -20 11 -2
38 -10 61 -18 22 -9 44 -13 47 -10 3 4 6 1 6 -5 0 -7 -7 -12 -15 -12 -8 0 -15
-4 -15 -10 0 -5 4 -10 10 -10 5 0 6 -8 3 -17 -4 -11 -8 -13 -11 -5 -8 24 -21
0 -15 -28 4 -20 2 -30 -7 -30 -7 0 -10 8 -7 20 3 10 0 21 -7 23 -8 3 -7 10 2
27 16 26 10 37 -8 15 -14 -17 -35 -21 -25 -5 3 6 2 10 -4 10 -20 0 -22 -22 -2
-27 23 -6 29 -23 7 -23 -8 0 -16 6 -19 14 -3 8 -15 12 -29 9 -13 -2 -36 3 -53
11 -16 8 -31 13 -33 11 -10 -10 31 -37 61 -40 17 -2 47 -8 65 -12 l33 -8 -31
-48 c-17 -27 -32 -58 -33 -70 -1 -12 -6 -25 -12 -29 -13 -10 -37 -10 -31 0 2
4 -25 18 -60 32 -49 18 -64 29 -65 44 -1 19 -2 19 -6 3 -5 -18 -6 -18 -28 3
l-23 21 -27 -25 c-15 -14 -24 -26 -20 -26 4 0 0 -9 -10 -20 -10 -11 -22 -17
-26 -14 -5 3 -9 -2 -9 -11 0 -12 4 -14 19 -5 14 7 22 7 26 -1 9 -13 7 -15 -27
-23 -24 -5 -27 -3 -30 21 -2 16 4 34 12 41 13 11 12 12 -6 3 -12 -6 -23 -8
-26 -6 -3 3 -5 -2 -5 -10 0 -8 5 -11 10 -8 5 3 7 0 5 -8 -3 -8 -11 -13 -18
-11 -7 1 -18 -2 -25 -8 -18 -15 -65 -23 -65 -11 0 5 10 11 22 13 22 3 39 28
18 28 -6 0 -8 -4 -5 -10 3 -5 -4 -11 -17 -12 -25 -2 -47 -5 -63 -8 -5 -1 -14
-2 -18 -1 -4 1 -18 -5 -30 -14 l-21 -15 22 0 c13 0 21 4 18 9 -7 11 61 7 71
-3 4 -4 2 -15 -4 -26 -11 -16 -9 -18 18 -13 17 2 29 0 29 -7 0 -6 -5 -8 -12
-4 -9 6 -9 3 0 -9 13 -15 16 -15 38 0 13 8 24 20 24 25 0 5 -7 2 -16 -6 -19
-20 -20 -20 -28 0 -5 12 -2 15 10 10 13 -5 15 -1 12 19 -3 14 -2 25 1 26 3 0
14 2 23 4 9 2 19 -3 22 -10 3 -9 0 -12 -10 -8 -7 3 -14 1 -14 -4 0 -19 13 -22
39 -9 14 8 41 20 59 26 18 7 32 19 32 29 -1 14 -2 13 -11 -2 -8 -14 -14 -15
-24 -7 -8 6 -11 18 -8 26 6 17 24 19 19 2 -1 -7 -1 -10 1 -5 3 4 12 7 21 8 11
0 9 4 -7 10 -23 9 -23 11 -8 26 15 15 18 15 35 0 10 -9 24 -17 30 -17 7 0 12
-4 12 -10 0 -5 11 -10 24 -10 14 0 28 -4 31 -10 3 -5 15 -10 26 -10 11 0 18
-4 15 -8 -3 -5 17 -19 44 -33 28 -13 48 -29 46 -35 -3 -7 5 -9 22 -6 20 4 24
2 19 -11 -4 -11 -2 -14 7 -11 7 3 20 -2 29 -10 9 -9 20 -16 26 -16 6 0 11 -5
11 -11 0 -5 4 -8 9 -5 5 3 14 -1 21 -10 7 -8 19 -13 27 -10 8 3 16 -1 19 -8 3
-8 17 -13 34 -12 16 1 28 0 27 -3 -2 -7 8 -11 24 -11 5 0 8 4 5 8 -2 4 4 9 15
9 17 2 18 0 4 -13 -8 -9 -15 -19 -15 -23 0 -13 80 -52 92 -45 7 4 8 3 4 -4 -5
-8 0 -12 13 -12 12 0 21 -4 21 -9 0 -5 9 -11 20 -14 11 -3 20 -1 20 5 0 5 -9
12 -20 15 -11 3 -20 9 -20 13 0 4 -13 13 -29 20 -16 6 -32 19 -36 28 -5 13 -8
14 -14 3 -5 -7 -14 -12 -20 -10 -8 3 -5 12 8 26 21 23 19 61 -3 45 -15 -12
-76 -13 -76 -1 0 5 4 9 10 9 5 0 7 7 4 15 -4 8 -10 15 -15 15 -4 0 -6 -7 -2
-16 5 -13 0 -15 -24 -11 -50 8 -107 42 -97 58 3 5 21 -3 41 -18 34 -26 36 -26
24 -5 -6 12 -9 27 -5 33 4 8 0 8 -14 0 -18 -9 -23 -7 -35 18 -10 20 -11 34 -4
46 7 13 3 23 -17 44 -19 18 -25 21 -20 8 4 -11 0 -25 -11 -37 -15 -16 -15 -22
-5 -35 7 -8 20 -14 28 -13 9 2 18 -5 20 -14 4 -22 -16 -23 -45 -3 -15 10 -23
11 -25 4 -2 -7 -13 -9 -26 -5 -12 4 -20 12 -17 17 3 5 0 6 -8 3 -26 -9 -25 10
0 36 17 17 22 20 17 7 -3 -9 -1 -23 5 -31 6 -7 8 -16 4 -19 -3 -4 -1 -7 5 -7
18 0 25 20 12 35 -7 8 -10 26 -8 40 5 23 -5 35 -15 18 -2 -5 -2 -1 1 7 2 8 5
23 6 33 0 9 4 17 9 17 4 0 11 0 16 0 5 0 8 -11 6 -25 -1 -14 1 -28 6 -30 10
-7 32 62 24 75 -8 12 59 115 88 135 12 8 18 15 13 15 -5 0 -3 7 4 15 6 8 8 20
4 26 -4 8 -3 9 4 5 11 -6 17 13 13 37 -1 5 3 6 9 2 5 -3 13 1 16 10 4 9 13 14
22 10 12 -4 12 -3 3 9 -8 10 -9 16 -1 21 6 3 7 11 4 17 -5 7 0 9 14 6 12 -4
20 -2 16 3 -3 5 2 25 12 44 15 32 25 40 47 36 5 -1 6 3 3 8 -4 5 2 25 13 44
11 19 17 37 15 40 -8 8 28 47 38 41 14 -9 9 13 -7 26 -17 14 -18 20 -6 39 8
13 15 12 51 -4 26 -12 39 -23 36 -32 -3 -8 -1 -11 4 -8 14 9 50 -4 50 -18 0
-7 14 -13 31 -13 17 -1 35 -7 40 -15 5 -8 9 -9 9 -3 0 14 -27 37 -62 52 -16 6
-28 16 -28 22 0 6 -8 10 -17 9 -24 -3 -73 21 -73 37 0 29 43 123 54 117 6 -3
8 -3 4 2 -4 4 -4 13 1 19 4 6 14 32 21 58 7 26 30 71 51 100 22 28 39 56 39
62 0 12 37 67 97 147 44 58 97 92 136 87 18 -2 23 3 25 25 3 23 -2 30 -32 42
-61 26 -78 20 -106 -32 -13 -27 -51 -94 -82 -150 -32 -57 -58 -106 -58 -111 0
-4 -16 -32 -36 -62 -41 -64 -128 -242 -138 -283 -5 -19 -12 -27 -21 -23 -15 5
-30 -27 -20 -44 8 -13 -34 -94 -117 -223 -38 -60 -82 -134 -99 -165 -33 -62
-49 -83 -49 -64 0 15 60 125 110 204 22 33 40 67 40 75 0 7 6 13 13 13 6 0 20
14 29 30 13 24 14 30 4 30 -9 0 4 36 39 108 134 274 187 411 199 517 4 28 10
67 15 87 9 40 6 49 -46 118 -36 46 -41 87 -23 165 13 59 4 55 -15 -7z m-15
-433 c0 -32 -45 -61 -68 -43 -9 7 -18 13 -20 14 -8 4 13 34 24 34 8 0 17 6 20
14 9 22 44 7 44 -19z m-799 -929 c10 6 12 -7 3 -30 -3 -9 -11 -13 -17 -9 -6 4
-8 0 -4 -11 6 -14 3 -15 -13 -6 -11 6 -20 7 -20 3 0 -4 -6 -1 -13 8 -7 8 -21
21 -32 27 -17 10 -15 11 22 12 23 0 45 5 49 12 6 9 9 9 12 0 2 -7 8 -10 13 -6z
m439 -226 c-6 -11 -17 -19 -23 -17 -16 5 -15 33 1 30 6 -2 12 5 12 14 0 12 3
14 11 6 8 -8 8 -17 -1 -33z"/>
<path d="M1202 2113 c0 -10 -27 -67 -61 -126 -64 -114 -67 -122 -51 -132 5 -3
7 0 5 8 -4 8 6 19 22 27 77 38 104 70 146 173 l16 37 -29 15 c-38 20 -49 19
-48 -2z"/>
<path d="M1045 1879 c3 -8 -6 -33 -21 -55 -36 -52 -110 -222 -101 -230 1 -1
11 -4 21 -6 17 -3 19 4 20 47 1 39 12 71 49 144 35 69 45 97 37 105 -8 8 -10
7 -5 -5z"/>
<path d="M704 1746 c-3 -9 -11 -13 -17 -9 -6 3 -7 1 -3 -6 4 -6 1 -14 -8 -17
-9 -3 -12 -12 -8 -22 5 -15 4 -16 -13 -2 -17 14 -18 14 -8 -5 6 -11 8 -27 6
-35 -3 -8 11 12 31 44 20 32 34 61 31 64 -2 3 -7 -3 -11 -12z"/>
<path d="M1070 1751 c0 -5 5 -11 11 -13 6 -2 11 -35 11 -83 0 -60 2 -74 9 -56
13 33 8 133 -7 148 -15 15 -24 17 -24 4z"/>
<path d="M756 1742 c-13 -21 -17 -90 -7 -116 16 -40 26 -25 11 18 -8 24 -8 46
-1 70 9 35 8 45 -3 28z"/>
<path d="M612 1614 c-12 -19 -27 -34 -33 -34 -5 0 -7 -4 -4 -10 3 -5 1 -10 -5
-10 -7 0 -10 -6 -7 -14 3 -7 0 -19 -6 -25 -6 -6 -8 -13 -5 -16 5 -6 30 30 70
104 25 44 19 48 -10 5z"/>
<path d="M659 1625 c-1 -5 -3 -22 -4 -36 -4 -55 -16 -76 -60 -107 -60 -42 -58
-59 4 -27 60 30 81 58 80 105 0 35 -16 84 -20 65z"/>
<path d="M1706 1551 c-16 -11 -33 -28 -38 -38 -8 -16 -8 -16 4 -2 20 24 58 41
75 35 13 -5 14 -4 3 9 -15 18 -9 19 -44 -4z"/>
<path d="M1843 1486 c-1 -18 -16 -61 -34 -95 -25 -45 -31 -63 -22 -69 15 -10
12 -77 -5 -94 -7 -7 -12 -23 -12 -36 0 -18 -4 -23 -16 -18 -8 3 -12 2 -9 -4 3
-6 2 -10 -4 -10 -5 0 -13 4 -16 10 -3 5 -17 9 -30 8 -13 -1 -21 -6 -19 -10 3
-4 11 -5 18 -2 7 3 20 -2 29 -10 8 -8 17 -12 21 -9 3 4 6 2 6 -4 0 -20 -14
-23 -32 -6 -17 15 -18 15 -13 1 4 -9 13 -19 21 -22 19 -7 18 -42 -1 -50 -8 -3
-15 -2 -15 3 0 13 -43 22 -54 11 -12 -12 -4 -21 24 -23 18 -1 21 -6 16 -31 -4
-17 -10 -32 -15 -36 -5 -3 -12 -21 -15 -41 -3 -20 -17 -56 -31 -80 -13 -24
-25 -54 -25 -66 0 -12 -4 -25 -10 -28 -6 -4 -7 1 -4 12 5 14 4 15 -4 4 -6 -8
-8 -21 -4 -29 3 -9 1 -13 -5 -9 -7 4 -16 -11 -24 -38 -8 -25 -19 -45 -27 -45
-8 0 -12 -6 -9 -14 3 -8 -1 -17 -9 -20 -9 -3 -13 -10 -10 -14 3 -5 -4 -16 -15
-25 -10 -9 -19 -26 -19 -37 0 -14 -4 -19 -12 -14 -6 4 -8 3 -5 -3 3 -5 -1 -22
-9 -38 -8 -15 -13 -29 -11 -31 8 -8 27 16 52 66 15 30 39 72 52 93 75 118 115
205 153 325 21 65 37 101 45 98 15 -6 41 34 27 43 -7 4 0 29 18 66 50 103 102
355 73 355 -5 0 -9 -15 -10 -34z"/>
<path d="M1816 1491 c-3 -5 -26 -14 -52 -20 -50 -13 -131 -81 -136 -115 -6
-35 17 -26 44 19 21 35 40 50 97 77 39 18 71 36 71 41 0 10 -18 9 -24 -2z"/>
<path d="M510 1412 c-13 -20 -23 -40 -22 -44 1 -5 -3 -8 -9 -8 -5 0 -7 -4 -4
-10 3 -5 1 -10 -5 -10 -7 0 -6 -5 2 -14 13 -14 32 0 22 16 -3 5 6 29 21 54 33
56 29 67 -5 16z"/>
<path d="M559 1369 c0 -19 -2 -20 -7 -7 -6 15 -8 14 -18 -7 -10 -20 -9 -22 4
-17 10 3 13 1 8 -6 -3 -6 -2 -13 3 -16 10 -6 26 63 17 72 -3 3 -6 -6 -7 -19z"/>
<path d="M403 1345 c-32 -35 -103 -176 -95 -190 3 -5 10 4 15 20 6 17 30 63
54 104 43 72 51 93 26 66z"/>
<path d="M450 1296 c0 -45 34 -64 36 -21 1 14 -2 22 -7 19 -5 -3 -9 0 -9 5 0
6 -4 11 -10 11 -5 0 -10 -6 -10 -14z"/>
<path d="M1514 1172 c3 -5 0 -13 -6 -16 -10 -5 -10 -8 1 -12 8 -4 25 -17 38
-30 13 -14 30 -21 39 -17 8 3 21 -2 29 -13 7 -11 16 -16 20 -12 4 4 -2 19 -14
34 -11 15 -21 22 -21 16 0 -14 -32 -3 -43 15 -4 7 -15 13 -23 13 -8 0 -13 4
-9 9 3 5 0 13 -6 17 -7 4 -9 3 -5 -4z"/>
<path d="M278 1125 c-9 -12 -20 -34 -24 -49 -3 -14 -10 -29 -15 -32 -5 -3 -9
-15 -9 -27 0 -14 13 4 35 47 37 71 43 102 13 61z"/>
<path d="M1292 1092 c11 -13 11 -15 -4 -9 -10 3 -18 2 -18 -4 0 -16 31 -23 41
-8 13 21 11 26 -12 32 -17 5 -18 3 -7 -11z"/>
<path d="M665 990 c-7 -11 2 -30 13 -30 4 0 13 9 20 20 11 17 10 20 -7 20 -11
0 -23 -4 -26 -10z"/>
<path d="M101 902 c-6 -12 -11 -31 -11 -44 0 -19 -2 -20 -11 -8 -7 10 -9 11
-7 2 7 -26 20 -17 33 23 15 43 13 58 -4 27z"/>
<path d="M890 829 c0 -6 -7 -9 -15 -5 -18 6 -20 -5 -3 -22 9 -9 14 -7 24 6 16
21 17 32 4 32 -5 0 -10 -5 -10 -11z"/>
<path d="M300 811 c0 -5 -13 -14 -30 -20 -16 -5 -30 -12 -30 -15 0 -3 12 -1
26 4 34 13 34 13 34 -11 0 -18 2 -19 15 -9 13 11 14 10 10 -3 -4 -8 -2 -18 3
-21 5 -3 8 6 6 19 -1 14 2 25 6 25 13 0 21 -16 12 -24 -4 -4 -7 -12 -7 -17 0
-5 -3 -9 -7 -9 -14 0 -57 -43 -52 -52 5 -8 1 -10 -38 -12 -12 0 -23 -7 -26
-14 -2 -6 -8 -9 -13 -6 -16 10 11 34 38 34 19 0 24 4 19 17 -4 9 -1 20 6 25
10 6 8 8 -4 8 -10 0 -18 4 -18 9 0 6 -9 9 -20 8 -11 -1 -20 -5 -20 -10 0 -5 6
-7 14 -4 8 3 17 0 19 -7 6 -15 -23 -18 -40 -3 -19 14 -16 27 10 37 12 5 15 9
7 9 -22 1 -36 -11 -44 -36 -6 -18 -4 -22 8 -17 9 3 16 2 16 -4 0 -5 -7 -12
-15 -16 -18 -7 -38 27 -24 41 6 6 4 10 -6 10 -8 0 -15 -7 -15 -14 0 -8 -3 -12
-8 -10 -4 3 -16 1 -27 -4 -18 -8 -17 -8 5 -6 15 1 24 -3 23 -10 -2 -7 4 -10
12 -7 31 12 13 -6 -25 -26 -22 -11 -40 -23 -40 -25 0 -3 18 4 40 15 48 24 68
27 50 5 -7 -8 -18 -15 -26 -15 -7 0 -16 -4 -19 -10 -4 -7 2 -7 18 -1 31 12 42
3 19 -16 -9 -8 -11 -12 -4 -8 7 3 24 9 39 11 14 3 39 12 54 20 25 12 29 12 29
0 0 -7 -7 -19 -15 -26 -9 -7 -15 -8 -15 -2 0 15 -37 3 -52 -17 -12 -14 -11
-15 4 -2 10 7 25 10 34 7 9 -4 23 -1 32 6 13 11 14 10 10 -2 -2 -8 -15 -17
-29 -18 -13 -2 -28 -8 -34 -14 -7 -8 -6 -9 1 -5 7 4 15 0 18 -9 3 -8 2 -12 -3
-9 -5 3 -13 0 -17 -6 -4 -8 -3 -9 4 -5 7 4 12 1 12 -8 0 -9 -4 -16 -9 -16 -5
0 -18 -3 -28 -7 -16 -6 -16 -5 -5 10 8 9 11 25 7 37 -5 17 -9 19 -21 9 -18
-15 -67 -22 -59 -8 4 5 13 9 21 9 8 0 14 5 14 10 0 7 -7 7 -20 0 -17 -9 -22
-7 -29 12 -5 13 -5 24 0 26 5 2 9 8 9 13 0 5 -12 3 -26 -3 -36 -17 -53 9 -23
34 12 10 25 16 29 13 4 -3 13 2 20 10 17 21 4 19 -40 -6 -25 -14 -38 -29 -37
-40 1 -11 6 -19 12 -19 5 0 3 -5 -5 -11 -11 -8 -7 -9 17 -4 26 5 33 3 33 -9 0
-9 0 -19 0 -23 0 -5 -4 -9 -10 -9 -5 -1 -14 -2 -20 -3 -5 0 -10 -6 -10 -12 0
-8 4 -8 12 -2 12 8 22 9 46 4 4 -1 -6 -8 -23 -15 -25 -11 -32 -11 -41 -1 -7 9
-15 10 -25 4 -11 -7 -11 -9 4 -9 10 0 15 -4 12 -10 -10 -16 19 -12 66 9 45 21
73 18 43 -3 -16 -12 -16 -13 2 -12 10 1 19 -3 19 -9 0 -5 -10 -9 -22 -7 -16 2
-23 -2 -23 -14 0 -14 3 -14 15 -4 13 11 14 10 10 -3 -4 -8 -2 -18 4 -22 6 -3
11 -11 11 -17 0 -6 -10 -3 -22 8 -15 13 -19 14 -10 3 11 -14 9 -18 -13 -23
-27 -7 -30 -13 -16 -35 7 -10 13 -11 30 -2 18 10 21 9 21 -9 0 -11 5 -20 11
-20 6 0 8 7 5 16 -3 9 -6 20 -6 25 0 12 -32 8 -41 -5 -4 -4 -9 -3 -13 3 -4 6
5 13 21 17 15 4 35 13 44 21 14 12 17 12 22 -1 3 -8 -1 -17 -9 -20 -10 -4 -13
-13 -9 -26 4 -12 1 -28 -5 -36 -11 -12 -15 -12 -27 3 -8 10 -12 13 -9 6 9 -16
-12 -27 -27 -14 -10 8 -13 4 -13 -14 0 -29 8 -32 26 -10 17 21 28 19 33 -7 l4
-23 2 23 c0 12 6 22 12 22 6 0 9 -7 5 -15 -3 -8 -1 -15 5 -15 7 0 9 10 5 24
-4 16 0 30 10 40 8 9 14 26 12 39 -1 12 2 22 7 22 6 0 9 -4 7 -9 -2 -5 4 -6
13 -2 9 3 24 7 33 7 9 1 4 4 -13 8 -16 4 -29 12 -28 19 2 7 -2 12 -7 12 -6 0
-10 -3 -10 -7 0 -5 -12 -9 -26 -10 -34 -1 -18 13 24 22 24 5 32 3 32 -8 0 -14
22 -15 52 -2 10 4 15 12 12 17 -4 6 -10 5 -16 -3 -7 -10 -8 -5 -4 14 8 34 -1
35 -14 1 -6 -14 -15 -22 -20 -19 -6 4 -8 11 -5 16 7 10 -31 7 -41 -4 -4 -4
-14 -7 -23 -7 -23 1 17 30 41 30 10 0 18 5 18 12 0 6 8 20 17 30 16 18 16 18
0 12 -24 -9 -21 3 3 16 17 9 20 8 20 -9 0 -11 -7 -26 -15 -35 -21 -21 -19 -28
4 -14 11 7 18 15 15 19 -2 4 0 10 5 14 6 3 8 12 4 20 -3 8 0 15 6 15 6 0 11
-6 11 -12 0 -8 3 -9 8 -3 4 6 20 11 35 13 23 2 30 -3 40 -28 8 -18 17 -26 23
-21 17 15 74 22 74 8 0 -7 -14 -14 -31 -15 -35 -3 -76 -21 -49 -22 19 -1 -26
-40 -46 -40 -7 0 -16 -5 -20 -11 -5 -9 1 -10 20 -5 15 4 26 2 26 -4 0 -5 -7
-11 -15 -11 -8 -1 -19 -3 -25 -4 -5 -1 -18 -3 -27 -4 -16 -2 -15 -3 2 -10 11
-5 26 -6 34 -3 9 3 12 1 7 -6 -4 -7 -15 -12 -25 -12 -12 0 -17 -8 -17 -25 0
-19 4 -24 16 -19 8 3 20 7 27 8 7 1 16 6 20 10 4 5 -4 6 -19 2 -17 -4 -28 -2
-28 4 0 9 14 14 33 11 4 0 8 3 8 9 2 12 5 27 9 38 2 4 4 13 4 21 1 8 6 16 13
18 12 4 11 -15 -2 -48 -3 -10 -1 -20 6 -25 9 -5 10 -2 6 9 -3 8 1 21 9 27 8 7
14 9 14 4 0 -5 6 2 13 16 18 33 11 56 -11 38 -13 -11 -14 -10 -10 2 2 8 15 17
29 18 13 2 30 9 37 15 9 7 16 7 23 0 8 -8 2 -13 -20 -18 -17 -4 -28 -11 -25
-17 4 -6 10 -6 17 1 6 6 21 11 34 11 26 0 29 10 11 29 -11 10 -10 11 5 6 9 -4
17 -13 17 -21 0 -8 4 -14 10 -14 10 0 3 27 -13 47 -7 9 -14 10 -29 2 -14 -8
-23 -8 -31 0 -8 8 -7 11 3 11 9 0 8 5 -6 15 -18 14 -18 14 8 15 15 0 29 4 33
9 7 13 -16 26 -24 14 -3 -6 -16 -13 -28 -17 -13 -4 -23 -12 -23 -17 0 -6 5 -7
11 -3 7 4 10 1 7 -6 -5 -16 -58 -25 -58 -10 0 5 7 10 15 10 8 0 15 4 15 10 0
5 -6 7 -14 4 -10 -4 -12 2 -9 21 6 29 19 40 28 25 3 -5 1 -10 -4 -10 -6 0 -11
-5 -11 -11 0 -8 5 -8 15 1 8 7 20 10 27 7 7 -2 19 2 26 9 10 12 10 14 -3 14
-9 0 -13 5 -10 10 4 6 10 8 14 5 5 -2 16 4 25 14 11 13 14 21 7 26 -6 3 -11 1
-11 -4 0 -6 -5 -11 -11 -11 -5 0 -7 5 -3 12 4 7 3 8 -5 4 -6 -4 -9 -10 -7 -14
7 -13 -19 -29 -46 -28 -15 1 -24 -2 -22 -6 3 -4 -2 -8 -10 -8 -10 0 -13 -6 -9
-17 6 -16 5 -16 -11 -4 -15 13 -19 13 -27 0 -7 -11 -9 -9 -9 9 0 15 6 22 19
22 11 0 23 5 26 10 3 6 1 10 -4 10 -6 0 -11 10 -11 21 0 18 -2 19 -15 9 -17
-14 -21 -35 -5 -25 6 3 10 2 10 -3 0 -5 -20 -15 -45 -22 -25 -7 -45 -17 -45
-22 0 -5 9 -4 21 3 16 8 24 8 33 -2 8 -9 8 -10 -1 -5 -8 4 -13 1 -13 -8 0 -10
6 -13 18 -9 15 6 15 4 4 -9 -7 -9 -22 -16 -33 -15 -19 1 -25 12 -11 20 4 2 2
3 -4 1 -24 -5 -30 12 -18 51 7 22 13 32 13 23 1 -28 36 -18 43 12 2 8 19 22
38 31 19 10 29 18 22 18 -7 1 -10 6 -6 13 4 6 3 8 -4 4 -6 -3 -13 -2 -17 4 -4
6 -11 8 -16 5 -5 -4 -9 -1 -9 5 0 6 -12 9 -27 8 -22 -2 -27 1 -25 15 2 9 0 17
-3 17 -3 0 -5 -4 -5 -9z m-55 -119 c-30 -6 -54 -32 -48 -50 5 -13 3 -14 -7 -6
-27 25 22 78 60 65 11 -4 10 -6 -5 -9z m151 -77 c-3 -8 -2 -15 3 -15 5 0 11
-12 14 -26 l5 -26 -23 28 c-17 21 -20 33 -13 42 14 17 21 15 14 -3z"/>
<path d="M992 763 c-8 -13 -13 -14 -24 -6 -10 8 -18 5 -33 -10 -18 -18 -18
-19 -2 -14 10 4 27 3 37 -3 14 -8 21 -5 34 15 9 13 12 26 7 30 -6 3 -14 -2
-19 -12z"/>
<path d="M1032 738 c-2 -10 -9 -18 -15 -18 -7 0 -6 -5 2 -12 10 -11 14 -10 22
5 6 9 19 17 29 17 32 0 31 18 -1 22 -25 4 -33 1 -37 -14z"/>
<path d="M490 729 c0 -7 -3 -10 -6 -6 -8 7 -34 -17 -34 -32 0 -6 5 -11 10 -11
6 0 10 7 10 16 0 8 4 13 9 10 5 -3 14 1 20 8 8 10 9 16 1 21 -5 3 -10 1 -10
-6z"/>
<path d="M610 649 c0 -5 -4 -7 -10 -4 -5 3 -10 0 -10 -7 0 -9 -3 -9 -10 2 -8
13 -10 13 -10 -1 0 -24 46 -22 47 2 1 11 0 19 -3 19 -2 0 -4 -5 -4 -11z"/>
<path d="M681 603 c-6 -10 -11 -12 -11 -5 0 6 -5 12 -11 12 -5 0 -8 -4 -5 -9
3 -5 -3 -20 -14 -34 -18 -23 -18 -25 -3 -23 10 2 18 8 18 14 0 6 3 14 8 18 4
4 7 2 7 -4 0 -17 35 -15 50 3 7 9 19 14 27 11 21 -8 15 2 -8 15 -17 9 -20 8
-14 -2 6 -9 3 -11 -8 -6 -10 4 -14 2 -11 -7 3 -7 -2 -13 -11 -13 -19 0 -19 11
1 31 8 9 11 16 5 16 -5 0 -15 -8 -20 -17z"/>
<path d="M555 600 c6 -10 4 -12 -8 -7 -9 3 -19 1 -23 -5 -5 -7 2 -9 20 -6 20
4 26 2 22 -8 -3 -8 -1 -14 5 -14 15 0 6 43 -10 48 -9 3 -11 0 -6 -8z"/>
<path d="M1150 591 c0 -5 14 -19 31 -31 16 -12 28 -25 25 -27 -3 -3 0 -15 6
-27 7 -11 12 -25 13 -30 0 -5 16 -10 35 -11 19 -2 36 -8 38 -13 2 -6 10 -8 19
-5 12 5 14 3 8 -7 -5 -9 -4 -11 4 -6 6 4 13 1 16 -6 4 -9 17 -13 40 -10 31 4
33 2 28 -19 -6 -23 -5 -23 16 3 11 14 21 29 21 32 0 3 -22 4 -50 1 -27 -3 -50
-1 -50 4 0 5 -21 17 -47 26 -57 19 -79 35 -78 55 1 8 -14 30 -32 48 -35 34
-43 38 -43 23z"/>
<path d="M377 543 c-4 -3 -7 -14 -7 -24 0 -20 -33 -42 -45 -31 -5 4 -5 2 -2
-5 5 -8 15 -8 35 -1 20 8 28 18 28 39 2 31 1 33 -9 22z"/>
<path d="M1740 548 c0 -3 7 -26 16 -52 26 -75 2 -225 -33 -212 -6 3 -17 -3
-25 -12 -12 -15 -11 -16 4 -4 10 8 19 9 22 3 4 -5 0 -13 -8 -18 -8 -4 -15 -11
-15 -15 -1 -5 -1 -11 -2 -15 0 -5 -5 1 -10 12 -9 20 -9 20 -6 0 1 -11 7 -20
12 -19 17 1 74 83 85 122 19 71 3 199 -28 210 -6 2 -12 2 -12 0z"/>
<path d="M1255 505 c40 -33 160 -71 171 -54 3 5 -8 9 -23 9 -16 0 -58 16 -93
35 -76 41 -97 44 -55 10z"/>
<path d="M822 498 c-7 -7 -12 -20 -12 -31 0 -11 -11 -22 -30 -28 -16 -6 -30
-16 -30 -21 0 -6 -12 -3 -26 7 -14 9 -28 14 -32 11 -3 -3 0 -6 6 -6 21 0 13
-17 -10 -25 -15 -4 -18 -8 -10 -12 7 -3 19 1 27 7 8 7 21 10 30 7 8 -4 17 -1
21 5 5 7 12 5 22 -8 13 -18 14 -18 7 4 -6 21 2 27 28 23 4 0 6 2 6 7 -5 30 4
54 24 62 13 5 16 9 7 9 -9 1 -21 -4 -28 -11z"/>
<path d="M1694 483 c-7 -11 -27 -17 -62 -19 -56 -4 -152 -49 -152 -71 0 -7 0
-16 -1 -20 -2 -19 19 -11 31 12 7 14 29 34 47 45 39 23 44 24 41 9 -2 -6 3
-14 10 -16 7 -3 10 1 6 10 -4 11 0 15 13 12 22 -3 20 -15 -15 -67 -15 -22 -31
-49 -37 -59 -5 -11 -13 -19 -17 -19 -5 0 -8 -23 -8 -51 0 -45 -2 -50 -15 -39
-8 7 -15 8 -15 3 0 -5 23 -20 50 -33 47 -22 52 -23 67 -7 15 15 15 23 4 81
-11 56 -11 72 3 121 9 30 14 60 11 65 -4 6 4 14 17 19 25 9 57 41 42 41 -5 0
-14 -7 -20 -17z m-85 -185 c-5 -18 -6 -48 -3 -65 7 -39 -6 -43 -23 -7 -10 22
-9 32 8 65 24 47 31 50 18 7z"/>
<path d="M100 470 c0 -11 -4 -21 -10 -21 -17 -2 -24 -5 -52 -19 -22 -10 -25
-16 -17 -27 10 -12 6 -17 -12 -15 -4 1 -4 -9 -1 -21 5 -18 7 -19 10 -4 2 10 8
14 15 11 7 -4 9 -4 5 1 -4 4 0 14 10 22 16 12 16 13 0 7 -10 -3 -18 -1 -18 5
0 6 5 12 10 12 6 1 13 3 18 4 4 2 17 6 30 10 14 5 22 15 22 31 0 13 -2 24 -5
24 -3 0 -5 -9 -5 -20z"/>
<path d="M750 463 c0 -7 -3 -12 -7 -10 -5 1 -8 -2 -8 -8 -1 -13 23 -7 49 11
18 12 18 14 3 14 -9 0 -17 -6 -17 -12 0 -9 -4 -8 -10 2 -6 10 -10 11 -10 3z"/>
<path d="M500 443 c0 -6 -10 -19 -22 -27 -12 -9 -23 -26 -25 -38 -3 -17 -1
-20 8 -11 6 6 17 9 24 7 6 -3 17 2 24 10 6 7 20 12 30 9 10 -3 22 0 25 6 4 6
2 11 -3 11 -6 0 -11 8 -11 18 0 13 -2 14 -9 4 -4 -8 -12 -14 -17 -14 -5 0 -8
-4 -6 -9 1 -5 -5 -9 -14 -9 -8 0 -12 -4 -9 -10 3 -5 2 -10 -4 -10 -24 0 -18
20 14 48 27 25 30 30 15 29 -11 -1 -20 -7 -20 -14z"/>
<path d="M583 405 c0 -8 7 -15 16 -15 13 0 14 -2 2 -9 -8 -5 -20 -7 -28 -4 -7
3 -13 -2 -13 -11 0 -13 4 -15 19 -6 25 13 64 13 56 0 -3 -5 -1 -10 5 -10 7 0
9 7 6 16 -3 9 -6 18 -6 20 0 3 -4 2 -10 -1 -5 -3 -15 3 -22 15 -15 24 -25 26
-25 5z"/>
<path d="M698 386 c-24 -17 -23 -25 2 -23 13 1 19 6 15 16 -5 12 -3 12 11 0
15 -12 17 -12 13 0 -7 20 -21 23 -41 7z"/>
<path d="M955 389 c-4 -5 -10 -7 -15 -4 -5 3 -19 1 -32 -6 -20 -11 -20 -13 -5
-24 9 -6 14 -15 10 -19 -4 -4 1 -4 11 0 10 4 14 10 9 13 -12 9 -15 31 -4 31 5
0 11 -7 15 -15 6 -17 26 -20 26 -4 0 5 -4 7 -10 4 -5 -3 -10 -2 -10 4 0 5 10
11 23 13 19 3 19 4 5 10 -10 4 -20 3 -23 -3z"/>
<path d="M264 378 c-3 -5 -10 -6 -15 -3 -5 4 -9 0 -9 -7 0 -11 -2 -11 -9 0 -6
10 -10 10 -21 -3 -7 -8 -10 -18 -6 -22 3 -3 6 -1 6 5 0 7 5 12 10 12 15 0 7
-24 -10 -33 -9 -4 -3 -5 13 -2 29 6 38 -9 11 -19 -8 -3 -12 -11 -8 -17 4 -8 9
-7 15 2 6 10 11 11 20 2 8 -8 3 -13 -20 -18 -17 -3 -33 -10 -36 -15 -3 -4 11
-4 30 0 27 6 35 5 35 -6 0 -11 6 -11 28 -3 15 6 29 10 32 10 5 -1 5 6 2 29 -1
5 -15 7 -32 3 -26 -5 -29 -3 -24 12 4 9 10 12 13 7 3 -5 18 -2 34 8 27 17 27
18 7 23 -12 3 -19 10 -15 16 3 6 2 11 -4 11 -19 0 -21 -19 -4 -29 16 -9 16
-10 -4 -11 -12 0 -27 -8 -32 -17 -10 -17 -10 -17 -11 0 0 28 1 32 11 30 5 -2
9 2 9 7 0 6 -4 10 -9 10 -6 0 -13 -4 -16 -10 -3 -5 -12 -10 -18 -10 -7 0 -3 7
8 16 11 8 25 12 31 10 7 -3 18 1 24 9 9 11 7 14 -10 12 -12 -1 -24 -5 -26 -9z"/>
<path d="M515 370 c-3 -5 -3 -10 2 -10 4 0 1 -5 -7 -11 -12 -9 -11 -10 8 -6
26 6 28 1 8 -19 -13 -12 -17 -11 -30 8 l-15 22 -10 -25 -10 -24 0 24 c-1 23
-1 23 -28 6 -23 -16 -25 -16 -20 -1 5 12 1 16 -16 15 -12 0 -16 -3 -9 -6 6 -2
12 -9 12 -14 0 -6 -4 -7 -10 -4 -6 3 -7 -1 -4 -9 5 -14 9 -14 36 0 29 15 30
15 23 -7 -6 -18 -4 -21 9 -16 11 5 16 1 16 -14 0 -11 4 -18 8 -15 5 3 7 19 4
37 -3 22 -1 30 7 25 6 -4 8 -12 5 -18 -5 -7 -2 -8 6 -3 10 6 12 4 7 -8 -3 -10
-2 -17 2 -17 5 0 7 -9 4 -19 -4 -16 0 -19 18 -17 13 1 34 8 46 14 31 17 32 16
31 -30 0 -46 -10 -58 -45 -58 -13 0 -23 -4 -23 -9 0 -6 13 -6 33 1 17 5 41 12
51 15 11 4 17 2 14 -3 -9 -14 10 -54 24 -53 10 0 10 2 1 6 -7 2 -13 11 -13 19
0 8 6 14 13 14 7 1 5 6 -6 14 -14 11 -15 15 -5 20 7 3 3 3 -9 0 -13 -3 -23 -1
-23 5 0 10 14 15 33 12 5 -1 6 3 2 9 -3 5 -2 10 4 10 5 0 15 -8 20 -17 9 -16
10 -16 11 -2 0 22 -26 32 -50 19 -25 -14 -30 -13 -24 5 4 8 12 15 19 15 8 0
16 4 19 9 4 5 -3 7 -14 4 -16 -4 -19 -2 -14 13 5 16 4 17 -6 4 -10 -13 -11
-12 -7 5 3 11 8 29 12 40 5 16 5 17 -4 5 -8 -11 -11 -12 -11 -2 0 7 -4 10 -10
7 -5 -3 -10 -2 -10 4 0 6 -7 8 -15 5 -8 -4 -17 1 -21 9 -3 9 -12 13 -21 10
-11 -4 -14 -2 -9 5 4 7 5 12 2 12 -3 0 -8 -4 -11 -10z m86 -56 c10 -12 8 -13
-7 -7 -17 6 -17 5 -5 -10 15 -18 13 -19 -39 -31 -21 -4 -26 -1 -27 17 -4 47
48 67 78 31z"/>
<path d="M796 371 c-3 -4 -22 -11 -43 -14 -65 -10 -73 -13 -85 -25 -16 -16 -5
-15 38 3 19 8 50 15 68 17 19 1 33 7 33 15 0 15 -4 16 -11 4z"/>
<path d="M825 346 c-11 -8 -26 -12 -35 -9 -9 3 -11 1 -5 -4 18 -15 15 -33 -6
-33 -13 0 -18 4 -13 12 4 7 3 8 -4 4 -7 -4 -12 -2 -12 3 0 6 5 11 12 11 6 0 9
3 5 6 -3 3 -20 -1 -38 -10 -17 -9 -35 -13 -40 -10 -5 3 -9 -2 -9 -11 0 -12 4
-13 18 -6 22 12 58 7 55 -7 -2 -6 8 -7 25 -3 15 4 27 12 27 17 0 17 16 34 26
29 5 -4 9 -2 9 4 0 5 8 12 18 14 13 4 14 5 1 6 -8 0 -24 -5 -34 -13z"/>
<path d="M1156 326 c-16 -14 -36 -22 -45 -19 -14 4 -14 3 -1 -5 10 -8 18 -8
27 -1 7 6 18 7 24 3 8 -5 9 -3 4 6 -6 10 -4 12 8 7 11 -4 15 0 14 14 -1 10 -1
19 -2 19 0 -1 -13 -11 -29 -24z"/>
<path d="M36 318 c4 -13 7 -29 7 -35 0 -7 5 -13 10 -13 5 0 7 7 3 15 -3 8 3
19 12 25 16 11 16 11 0 6 -12 -3 -18 0 -18 9 0 8 -5 15 -11 15 -6 0 -8 -9 -3
-22z"/>
<path d="M924 319 c-3 -6 -13 -8 -21 -5 -8 3 -12 2 -9 -3 3 -5 -1 -11 -9 -15
-8 -3 -15 -11 -15 -18 0 -10 2 -10 9 0 4 7 25 19 45 26 27 9 33 15 22 19 -8 3
-18 2 -22 -4z"/>
<path d="M115 300 c-17 -7 -17 -9 -2 -9 9 -1 17 -6 17 -12 0 -6 -6 -9 -14 -6
-8 3 -16 1 -18 -4 -2 -5 -13 -11 -25 -12 -17 -1 -20 -4 -11 -15 9 -10 8 -16
-3 -23 -9 -6 -10 -9 -2 -9 7 0 10 -7 7 -15 -7 -17 4 -19 26 -5 8 5 11 12 7 16
-4 4 1 13 11 21 9 8 11 12 5 8 -7 -3 -21 -1 -30 4 -16 9 -16 10 5 11 12 0 25
0 28 -1 4 0 10 4 13 10 4 6 23 12 41 14 26 2 35 8 37 22 3 20 3 20 -6 0 -6
-11 -10 -14 -10 -6 -1 9 -5 10 -13 4 -18 -13 -44 -10 -40 5 1 7 1 12 0 11 -2
0 -12 -4 -23 -9z"/>
<path d="M7 286 c-5 -12 -1 -23 10 -32 13 -11 14 -14 3 -12 -9 2 -16 -6 -18
-20 l-4 -24 21 21 c19 19 20 24 8 53 -11 28 -14 30 -20 14z"/>
<path d="M402 292 c-12 -2 -20 -7 -17 -12 3 -5 12 -7 20 -3 8 3 15 0 15 -6 0
-6 -3 -11 -7 -12 -5 0 -16 -2 -25 -4 -12 -2 -18 3 -18 16 0 11 -4 18 -10 14
-14 -9 11 -57 26 -51 8 3 16 1 19 -4 4 -6 -3 -10 -14 -10 -11 0 -23 -5 -27
-11 -4 -8 -9 -7 -15 2 -6 9 -9 10 -9 2 0 -6 -8 -14 -17 -16 -12 -3 -9 -5 8 -6
14 0 30 4 37 11 9 9 12 8 12 -5 0 -9 -6 -17 -12 -18 -25 -1 -46 -7 -63 -17
-14 -7 -11 -9 14 -8 17 0 31 4 31 8 0 3 8 5 18 4 9 -2 20 2 24 8 7 9 13 -33 9
-57 -1 -5 3 -6 9 -2 5 3 10 -1 10 -10 0 -10 -6 -15 -13 -12 -7 3 -21 -1 -32
-9 -10 -8 -14 -14 -8 -14 7 0 14 4 17 8 3 5 15 8 28 6 13 -1 28 -3 34 -3 6 -1
16 -12 22 -25 10 -22 8 -25 -11 -29 l-22 -4 23 -2 c12 0 22 -5 22 -11 0 -5 10
-10 23 -10 22 1 22 1 2 13 -21 12 -29 53 -10 50 6 -1 11 8 12 20 0 12 -1 16
-4 9 -3 -6 -9 -10 -14 -6 -5 3 -9 -3 -10 -13 0 -15 -2 -14 -9 4 -6 15 -15 21
-25 17 -17 -7 -22 21 -5 31 6 4 9 13 8 21 -2 7 20 30 47 50 28 20 43 34 35 32
-8 -3 -20 4 -26 15 -7 13 -14 16 -18 8 -4 -6 -2 -11 3 -11 6 0 11 -7 11 -17 0
-15 -2 -14 -20 2 -13 12 -27 15 -44 11 -14 -3 -28 -2 -31 4 -5 8 23 15 48 11
4 0 7 4 7 10 0 6 -6 9 -14 6 -9 -4 -16 1 -18 11 -2 11 -11 16 -26 14z m73 -76
c18 -13 17 -14 -10 -32 -33 -21 -58 -27 -53 -12 2 6 11 12 20 14 9 1 24 7 35
14 14 9 15 10 1 6 -9 -3 -19 0 -22 7 -3 7 -5 6 -5 -3 -1 -18 -51 -26 -51 -8 0
6 3 8 6 5 4 -3 16 0 28 8 25 18 28 18 51 1z"/>
<path d="M162 253 c-6 -2 -10 -9 -6 -14 3 -5 -6 -14 -20 -21 -14 -6 -26 -16
-26 -21 0 -5 11 -2 24 6 21 14 25 14 30 2 3 -8 2 -14 -2 -13 -4 1 -18 -4 -31
-11 -18 -10 -20 -16 -11 -24 9 -9 15 -8 25 6 17 24 83 29 95 8 16 -28 21 -5 5
25 -8 16 -15 23 -15 15 0 -8 -6 -11 -16 -7 -8 3 -12 2 -9 -4 7 -12 -5 -13 -21
-2 -13 8 -15 42 -2 42 4 0 8 5 8 10 0 11 -7 12 -28 3z"/>
<path d="M220 237 c0 -5 7 -7 15 -3 9 3 16 -1 16 -9 3 -28 4 -33 12 -41 4 -4
7 -23 7 -43 0 -26 -3 -32 -9 -21 -6 8 -8 17 -5 21 2 4 -4 7 -15 6 -11 0 -17
-6 -14 -14 3 -7 9 -11 13 -8 4 3 10 -9 14 -26 3 -19 10 -28 17 -23 7 4 8 9 1
13 -7 4 -5 13 4 25 8 11 14 15 14 9 0 -7 9 -11 20 -10 11 1 20 5 20 9 0 4 5 8
11 8 6 0 8 -7 5 -16 -3 -8 -2 -12 4 -9 6 3 10 1 10 -5 0 -7 6 -5 15 4 8 8 15
22 15 30 0 9 -7 16 -15 16 -8 0 -15 -4 -15 -9 0 -4 -11 -6 -25 -3 -16 3 -25 0
-25 -8 0 -10 -3 -10 -15 0 -16 14 -21 55 -5 45 6 -3 10 0 10 8 0 10 -7 14 -22
10 -22 -4 -22 -4 1 10 14 8 31 13 38 10 7 -3 13 -1 13 4 0 19 -13 22 -41 7
-27 -14 -29 -13 -29 5 0 14 -6 19 -20 18 -11 -1 -20 -5 -20 -10z"/>
<path d="M1197 236 c4 -5 0 -7 -9 -3 -12 4 -15 -1 -14 -23 1 -16 6 -33 10 -37
4 -4 5 4 1 20 -6 23 3 36 18 25 2 -2 11 3 20 10 14 12 19 12 32 -2 9 -9 19
-16 23 -16 3 0 -2 8 -11 18 -18 18 -80 26 -70 8z"/>
<path d="M542 210 c-7 -11 -18 -20 -25 -20 -12 0 -57 -43 -57 -55 0 -2 7 -2
15 1 8 4 15 12 15 20 0 13 25 23 67 27 18 1 20 4 11 22 -6 11 -11 21 -12 22
-1 1 -7 -7 -14 -17z"/>
<path d="M912 203 c-15 -13 -15 -13 5 -4 14 7 24 8 28 1 3 -5 2 -10 -3 -10 -5
0 -9 -7 -9 -15 0 -21 16 -4 21 22 5 23 -16 26 -42 6z"/>
<path d="M36 190 c6 -22 5 -23 -9 -12 -17 14 -30 3 -18 -16 5 -9 11 -9 25 1
16 11 17 17 7 33 -11 17 -11 16 -5 -6z"/>
<path d="M712 185 c-7 -9 -8 -15 -2 -15 5 0 10 -4 10 -10 0 -19 -21 -10 -30
13 -6 15 -9 17 -9 6 -1 -24 21 -38 54 -34 38 4 58 -7 26 -15 -14 -3 -26 -11
-27 -18 -1 -7 0 -8 3 -2 2 5 9 10 14 10 6 0 7 -6 3 -12 -5 -8 -1 -7 10 2 22
17 44 21 52 9 3 -5 -3 -9 -13 -10 -11 0 -13 -3 -5 -6 8 -3 5 -11 -10 -24 l-23
-20 28 17 c15 9 27 21 27 26 0 5 5 6 10 3 6 -3 10 -2 10 3 0 6 -7 13 -16 16
-8 3 -12 10 -9 16 4 6 -1 7 -11 3 -10 -3 -22 0 -28 8 -6 8 -20 14 -31 14 -14
0 -19 6 -17 18 3 20 1 21 -16 2z"/>
<path d="M183 163 c-9 -3 -10 -9 -1 -22 16 -27 3 -49 -33 -59 -18 -4 -35 -14
-37 -22 -5 -13 -3 -13 11 -1 10 7 17 10 17 5 0 -4 5 -3 12 4 7 7 20 12 31 12
10 0 16 4 12 9 -3 6 4 9 15 8 11 -1 20 -5 20 -9 0 -11 -36 -28 -44 -21 -3 3
-6 -3 -6 -15 0 -12 5 -22 11 -22 5 0 8 4 4 9 -3 6 4 15 15 21 17 9 20 8 20
-12 0 -16 -3 -19 -9 -10 -6 11 -10 10 -15 -3 -4 -11 -13 -15 -26 -12 -12 3
-20 0 -20 -7 0 -13 39 -14 58 -2 7 4 22 9 34 11 12 3 24 8 27 12 3 5 14 9 23
11 15 2 16 -1 8 -23 -7 -17 -7 -24 0 -20 6 3 10 13 10 21 0 8 6 17 14 20 8 3
14 14 13 25 -2 23 1 23 -27 -1 -25 -22 -40 -19 -21 4 7 8 8 17 4 19 -5 3 -14
-7 -21 -22 -13 -30 -44 -38 -41 -12 3 38 -1 53 -16 48 -8 -4 -17 -2 -20 3 -3
4 1 11 7 13 10 4 10 6 1 6 -17 1 -17 28 0 34 8 4 7 5 -3 5 -8 0 -20 -2 -27 -5z"/>
<path d="M1640 155 c0 -10 10 -15 29 -15 29 0 60 -25 47 -37 -4 -4 -11 -1 -17
7 -7 11 -8 6 -3 -15 6 -28 6 -29 -9 -10 -15 19 -15 19 -10 -7 3 -14 0 -29 -6
-32 -7 -4 -11 1 -11 13 0 12 -4 21 -9 21 -4 0 -4 -17 2 -39 l10 -38 34 44 c18
24 33 52 33 62 0 31 -11 50 -25 45 -7 -3 -16 -1 -20 5 -10 16 -45 13 -45 -4z"/>
<path d="M33 145 c-34 -14 -47 -29 -16 -18 16 6 16 5 4 -11 -17 -20 -22 -56
-9 -56 5 0 8 10 6 23 -2 14 2 21 11 19 7 -1 19 2 25 8 7 5 16 7 19 3 4 -3 13
0 22 7 17 14 50 6 40 -10 -3 -5 -11 -10 -16 -10 -6 0 -8 4 -5 8 3 4 -15 -1
-39 -12 -47 -22 -55 -33 -12 -17 22 9 26 7 30 -12 3 -18 5 -17 6 6 0 16 5 26
10 23 17 -11 39 5 44 30 3 16 1 22 -7 16 -6 -4 -24 -7 -41 -6 -16 1 -38 -5
-48 -14 -9 -8 -20 -13 -23 -10 -3 3 7 15 22 27 31 24 23 26 -23 6z"/>
<path d="M590 149 c0 -5 -5 -7 -12 -3 -7 4 -8 3 -4 -5 4 -6 11 -9 16 -6 5 3
12 -7 16 -22 9 -44 12 -50 13 -25 1 12 7 22 14 22 6 0 4 5 -5 11 -10 5 -18 17
-18 24 0 8 -4 15 -10 15 -5 0 -10 -5 -10 -11z"/>
<path d="M1093 147 c-3 -6 -1 -7 4 -4 12 8 65 -42 58 -54 -3 -4 -1 -10 4 -14
6 -3 8 3 6 15 -3 14 1 20 16 20 18 0 18 1 2 18 -10 10 -21 14 -24 10 -7 -10
-41 1 -34 11 2 4 -3 8 -11 8 -8 0 -18 -5 -21 -10z"/>
<path d="M1565 130 c-3 -6 5 -14 19 -20 14 -5 26 -16 26 -25 0 -8 5 -15 10
-15 15 0 12 17 -5 32 -37 34 -44 38 -50 28z"/>
<path d="M679 108 c-7 -24 -5 -36 6 -32 7 3 16 -4 20 -15 4 -12 11 -18 17 -15
7 5 2 16 -15 30 -17 15 -22 24 -14 27 9 4 9 6 0 6 -7 1 -13 0 -14 -1z"/>
<path d="M1264 72 c10 -12 22 -19 26 -17 5 3 10 -1 13 -7 2 -7 8 -10 12 -5 10
9 -6 27 -26 30 -8 2 -21 7 -29 12 -9 5 -8 0 4 -13z"/>
<path d="M1550 83 c0 -6 -9 -10 -20 -8 -19 4 -19 3 -4 -21 9 -13 21 -24 28
-23 7 0 6 2 -1 6 -16 6 -17 23 -3 23 6 0 15 -11 20 -25 5 -14 12 -25 14 -25 6
0 -3 25 -21 60 -7 14 -13 20 -13 13z"/>
<path d="M113 34 c-32 -14 -48 -32 -19 -21 8 3 17 1 20 -6 2 -7 5 -4 5 5 1 11
6 15 16 12 9 -4 15 0 15 10 0 9 -1 16 -2 15 -2 0 -18 -7 -35 -15z"/>
</g>
</svg>
